<?xml version="1.0" standalone="no"?>
<!DOCTYPE svg PUBLIC "-//W3C//DTD SVG 20010904//EN"
 "http://www.w3.org/TR/2001/REC-SVG-20010904/DTD/svg10.dtd">
<svg version="1.0" xmlns="http://www.w3.org/2000/svg"
 width="600.000000pt" height="600.000000pt" viewBox="0 0 600.000000 600.000000"
 preserveAspectRatio="xMidYMid meet">
<metadata>
Created by potrace 1.11, written by Peter Selinger 2001-2013
</metadata>
<g transform="translate(0.000000,600.000000) scale(0.100000,-0.100000)"
fill="#000000" stroke="none">
<path d="M2475 5979 c-437 -79 -848 -251 -1200 -501 -95 -67 -96 -69 -209
-162 -83 -69 -282 -267 -346 -345 -25 -29 -50 -59 -55 -65 -61 -67 -189 -257
-275 -409 -137 -243 -268 -579 -316 -812 -18 -85 -45 -249 -49 -290 -3 -27 -8
-61 -11 -75 -9 -39 -12 -476 -4 -560 20 -190 31 -261 66 -420 79 -354 233
-712 437 -1015 45 -67 148 -207 158 -215 3 -3 30 -34 60 -70 147 -177 385
-388 602 -533 140 -93 138 -92 272 -164 280 -151 675 -280 945 -308 30 -4 61
-8 69 -11 77 -25 632 -24 756 1 11 2 38 6 60 9 53 7 190 34 240 47 22 6 49 13
59 15 56 11 216 63 331 107 293 113 628 314 849 506 124 109 167 151 294 289
208 226 433 585 541 863 18 46 37 93 42 104 34 80 120 389 133 480 3 22 7 50
10 62 4 21 12 71 21 148 19 151 25 425 12 590 -7 98 -26 255 -31 264 -2 3 -7
26 -10 51 -3 25 -19 99 -35 165 -169 690 -559 1280 -1128 1708 -56 43 -106 77
-111 77 -6 0 -12 4 -14 8 -6 16 -233 148 -358 209 -230 111 -540 213 -750 247
-19 3 -46 9 -60 13 -14 3 -218 8 -455 9 -393 3 -439 1 -540 -17z"/>
</g>
</svg>
