<?xml version="1.0" encoding="utf-8"?>
<!-- Generator: Adobe Illustrator 17.0.0, SVG Export Plug-In . SVG Version: 6.00 Build 0)  -->
<!DOCTYPE svg PUBLIC "-//W3C//DTD SVG 1.1//EN" "http://www.w3.org/Graphics/SVG/1.1/DTD/svg11.dtd">
<svg version="1.1" id="Layer_1" xmlns="http://www.w3.org/2000/svg" xmlns:xlink="http://www.w3.org/1999/xlink" x="0px" y="0px"
	 width="149px" height="120.864px" viewBox="0 0 149 120.864" enable-background="new 0 0 149 120.864" xml:space="preserve">
<path fill="#010101" d="M99.78,42.343c0,0,2.991-0.898,4.396-1.017c1.404-0.12,3.618-0.285,4.216-0.419
	c0.598-0.134,1.958-0.479,3.707-1.001c1.75-0.524,3.798-0.928,4.724-1.135c0.928-0.209,2.284-0.371,2.688-0.54
	c0.405-0.167,1.122-0.347,1.625-0.526c0.507-0.179,1.472-0.571,1.64-0.27c0.167,0.303,0.258,0.483,0.818,0.417
	c0.562-0.068,2.199-0.595,3.038-0.954c0.841-0.359,1.614-0.65,1.94-0.942c0.324-0.291,0.718-0.739,1.042-0.931
	c0.326-0.189,0.348-0.235,0.517-0.481c0.167-0.247,0.202-0.812,1.062-1.374c0.86-0.559,1.188-0.604,1.315-0.716
	c0.127-0.112,0.515-0.673,1.105-0.32c0.591,0.35,1.928,1.703,2.452,2.451c0.524,0.748,1.532,1.765,1.903,1.765
	c0.37,0,1.247-0.125,1.951,1.144c0.707,1.267,1.706,3.408,1.874,4.507c0.168,1.099-0.293,1.357-0.684,1.447
	c-0.395,0.089-2.053-0.505-2.884-0.986c-0.83-0.483-3.139-1.245-3.754-1.458c-0.618-0.213-1.715-0.538-1.941-0.752
	c-0.224-0.213-1.581-0.314-2.074-0.257c-0.493,0.057-4.091,1.064-5.024,1.548c-0.93,0.481-1.166,0.525-1.063,1.379
	c0.1,0.853,0.1,1.054,0.293,1.569c0.189,0.516,0.379,1.593,0.28,2.13c-0.103,0.538-0.551,0.673-1.671,0.763
	c-1.122,0.09-1.874,0.246-2.188,0.291c-0.314,0.045-2.78,0.101-3.812-0.101c-1.031-0.202-2.937-0.741-3.645-0.55
	c-0.706,0.191-2.488,1.054-3.341,1.435c-0.852,0.381-2.77,0.885-3.308,0.673c-0.538-0.214-0.931-0.517-1.268-0.146
	c-0.336,0.369-1.143,1.571-1.648,1.771c-0.503,0.201-1.177,1.255-1.793,0.796c-0.616-0.46-1.301-1.222-1.929-0.908
	c-0.626,0.313-4.675,2.68-5.774,3.072c-1.098,0.393-4.776,1.728-5.819,2.097c-1.043,0.371-1.873,0.74-2.086,0.886
	c-0.214,0.145-0.471,0.1-0.595,0.079c-0.123-0.022-0.705,0.102-0.941,0.403c-0.236,0.303-1.515,1.65-2.075,1.672
	c-0.561,0.022-1.032-0.08-1.065,0.369c-0.035,0.449-0.561,0.986-1.009,1.356c-0.449,0.371-0.707,0.932-1.076,1.212
	c-0.371,0.281-0.751,0.583-1.188,0.696c-0.438,0.112-1.076,0.785-1.537,0.627c-0.46-0.156-0.885,0.147-0.977,0.313
	c-0.089,0.169,0.54,0.495,0.641,0.729c0.1,0.236-0.034,0.863-0.347,1.189c-0.315,0.326,0.044,1.919-0.753,3.007
	c-0.795,1.087-1.67,2.421-2.275,3.003c-0.606,0.583-0.751,0.628-0.808,1.704c-0.055,1.076-0.695,3.634-1.267,4.643
	c-0.572,1.009-2.007,3.06-2.007,4.408c0,1.345,0.314,2.634,0.527,3.968c0.214,1.334,0.123,4.138-0.235,6.986
	c-0.359,2.849-0.449,5.764-0.695,6.816c-0.247,1.054-0.651,4.194-0.852,4.822c-0.202,0.629-0.875,3.028-1.592,5.159
	c-0.718,2.13-1.459,4.305-1.145,4.889c0.313,0.583,0.202,0.329,0.763,0.486c0.561,0.156,0.583,0.312,0.688,0.515
	c0.104,0.203,0.044,0.239,0.38,0.217c0.337-0.022,0.808,0.016,0.935,0.202c0.127,0.186,0.283,0.15,0.508,0.18
	c0.225,0.03,0.771,0.502,1.107,0.821c0.336,0.323,0.352,0.592,0.127,0.667c-0.224,0.075-0.59,0.007-0.889-0.24
	c-0.299-0.246-0.979-0.455-1.338-0.291c-0.358,0.166-1.215,0.147-1.63,0.18c-0.415,0.033-1.357-0.011-2.299-0.023
	c-0.942-0.011-2.825-0.337-3.532-0.619c-0.706-0.278-1.345-0.706-2.085-0.75c-0.74-0.045-1.311,0.055-1.816,0.079
	c-0.504,0.021-1.133-0.067-1.414-0.291c-0.28-0.225-0.156-0.674,0.505-0.708c0.661-0.033,0.672-0.212,1.425-0.313
	c0.751-0.102,0.918-0.191,1.267-0.315c0.346-0.122,0.84-0.145,1.345-0.158c0.504-0.011,0.819,0.08,1.279-0.291
	c0.46-0.37,0.448-0.516,0.46-0.918c0.01-0.405-0.058-0.818,0.133-1.952c0.191-1.133,0.538-2.871,0.538-3.969
	c0-1.099,0.226-2.782,0.651-4.308c0.425-1.524,0.74-2.936,0.74-3.721c0-0.784-0.18-1.279-0.157-3.185
	c0.023-1.905-0.09-4.844-0.09-5.136c0-0.292,0-0.481-0.122-0.481c-0.125,0-0.17-0.504-0.056-1.032
	c0.111-0.527,0.269-0.942,0.145-1.133c-0.124-0.191-0.259-0.234-0.505,0.08c-0.246,0.313-1.401,0.034-1.838-0.461
	c-0.438-0.492-0.64-0.594-1.267-0.974c-0.628-0.382-1.313-0.606-1.356-0.315c-0.046,0.292-0.706,1.178-1.234,1.671
	c-0.527,0.495-1.121,0.774-1.49,0.942c-0.372,0.169-0.562,0.235-0.863,0.549c-0.304,0.314-1.316,0.864-1.607,0.565
	c-0.292-0.298-0.314-0.552-0.546-0.65c-0.231-0.096-1.644-0.419-2.042-1.324c-0.395-0.904-0.717-1.36-0.911-2.047
	c-0.195-0.688-0.378-1.251-0.31-1.903c0.067-0.649,0.281-0.909,0.123-1.267c-0.157-0.358-1.099-1.3-1.514-1.816
	c-0.415-0.515-0.942-1.581-1.065-2.277c-0.123-0.694,0.057-1.446-0.257-1.479c-0.314-0.034-1.347-0.583-1.795-1.02
	c-0.448-0.437-0.909-0.808-1.244-0.785c-0.336,0.023-0.863-0.414-0.998-0.763c-0.135-0.347-0.527-0.324-0.696-0.292
	c-0.168,0.035-0.515-0.177-1.109-0.267c-0.595-0.091-2.332-0.483-2.894-0.552c-0.561-0.066-1.838-0.424-2.209-0.458
	c-0.37-0.034-1.165-0.338-1.77-0.338c-0.606,0-2.277-0.01-3.04-0.111c-0.762-0.101-1.3-0.325-2.018-0.369
	c-0.717-0.045-3.499-0.459-4.507-0.471c-1.01-0.011-3.163-0.191-3.825-0.269c-0.662-0.079-1.906-0.181-2.994-0.225
	c-1.088-0.045-1.929-0.09-2.231,0.111c-0.303,0.203-1.01,0.932-1.76,0.944c-0.752,0.011-1.706-0.371-2.366-0.383
	c-0.662-0.009-1.67-0.077-2.086-0.111c-0.414-0.033-0.347-0.313-0.539-0.391c-0.19-0.081-1.502-0.169-1.715-0.338
	c-0.213-0.167-0.202-0.952,0.259-0.997c0.459-0.045,0.067-0.886,0.537-1.009c0.472-0.123,0.909-0.022,0.919-0.236
	c0.011-0.213-0.359-0.942,0.394-0.976c0.751-0.033,2.354-0.011,2.992-0.19c0.641-0.179,1.728-0.416,2.951-0.393
	c1.221,0.023,2.377,0.583,2.747,0.572c0.369-0.012,0.583,0.179,0.818-0.156c0.236-0.337,0.325-0.942,1.245-0.942
	c0.919,0,3.644-0.213,5.304-0.19c1.659,0.022,5.023-0.123,8.409,0.157c3.386,0.28,7.715,0.269,9.396,0.74
	c1.681,0.471,3.589,1.299,4.531,1.276c0.941-0.023,1.692-0.123,1.973-0.447c0.281-0.324,1.917-1.951,2.545-2.624
	c0.628-0.674,2.377-1.548,2.591-1.795c0.212-0.247,0.661-1.355,0.986-2.163c0.325-0.807,1.129-2.781,1.802-3.469
	c0.672-0.687,2.212-1.599,2.601-1.749c0.388-0.149,0.957,0.568,1.091,0.419c0.136-0.149,1.361-1.614,1.883-2.197
	c0.524-0.583,0.764-1.361,0.958-1.765c0.194-0.403,0.403-0.612,0.388-0.986c-0.015-0.372,0.119-0.522-0.12-0.778
	c-0.238-0.254-0.709-0.586-0.721-0.933c-0.011-0.349,0.293-0.461,0.618-0.629c0.325-0.167,0.257-0.347-0.023-0.83
	c-0.281-0.482-0.403-1.031-0.494-1.031c-0.089,0-0.516-0.595-0.617-0.808c-0.101-0.212-0.963-0.997-1.2-1.514
	c-0.236-0.515-0.549-0.975-1.144-1.391c-0.594-0.415-1.592-1.928-1.838-2.241c-0.247-0.313-2.107-2.905-2.646-3.902
	c-0.538-0.999-1.009-2.59-1.29-2.556c-0.279,0.032-1.345,0.324-1.839-0.337c-0.492-0.661-0.986-1.638-1.221-2.288
	c-0.236-0.65-0.236-0.448-0.729-0.997c-0.494-0.549-1.908-2.343-2.401-3.094c-0.493-0.752-0.37-0.999-0.986-1.369
	c-0.617-0.37-3.443-1.996-4.384-2.68c-0.941-0.684-2.545-1.761-2.926-1.894c-0.381-0.135-0.74-0.886-0.258-1.66
	c0.483-0.773,1.378-2.299,1.985-2.759c0.605-0.46,0.852-0.494,0.605-1.009c-0.246-0.515-1.39-2.298-2.119-3.163
	c-0.729-0.862-2.221-2.365-2.668-2.388c-0.449-0.022-0.269,0.07-0.374,0.13c-0.104,0.061-0.524,0.024-1.114-0.246
	c-0.59-0.27-1.226-0.285-1.3-0.322c-0.076-0.038,0.097-0.128-0.225-0.253c-0.321-0.128-1.062-0.344-1.891-0.442
	c-0.831-0.097-1.234-0.15-2.019-0.15c-0.785,0-1.868-0.051-2.893-0.619c-1.024-0.568-1.211-1.205-0.807-1.727
	c0.403-0.524,0.636-1.033,1.84-1.766c1.202-0.731,1.957-1.022,2.772-1.082c0.815-0.06,1.861,0.389,2.646,0.657
	c0.786,0.27,1.667,0.209,2.378-0.015c0.71-0.224,2.28-0.86,2.848-0.964c0.568-0.105,2.227-0.202,2.728,0.666
	c0.501,0.867,0.807,1.263,0.853,2.294c0.045,1.032-0.082,1.525,0.104,2.272c0.188,0.748,1.047,1.951,1.593,2.714
	c0.546,0.762,2.047,1.891,2.489,2.451c0.44,0.561,1.009,1.135,1.226,1.503c0.218,0.365,2.198,2.488,2.747,3.072
	c0.549,0.583,2.915,3.375,3.711,4.183c0.796,0.807,3.151,3.397,3.689,4.083c0.538,0.683,2.064,2.466,2.748,2.825
	c0.684,0.358,3.072,2.455,3.633,3.028c0.56,0.571,1.714,1.176,2.869,2.196c1.155,1.022,5.17,4.677,6.224,5.618
	c1.053,0.942,3.252,2.389,3.813,2.524c0.559,0.133,3.251,0,5.83-0.058c2.579-0.056,2.859-0.124,3.464-0.225
	c0.605-0.101,2.949-0.751,5.494-0.93c2.545-0.18,3.275-0.18,4.799-0.493C98.778,42.704,99.78,42.343,99.78,42.343z"/>
</svg>
