<?xml version="1.0" standalone="no"?>
<!DOCTYPE svg PUBLIC "-//W3C//DTD SVG 20010904//EN"
 "http://www.w3.org/TR/2001/REC-SVG-20010904/DTD/svg10.dtd">
<svg version="1.0" xmlns="http://www.w3.org/2000/svg"
 width="512.000000pt" height="512.000000pt" viewBox="0 0 512.000000 512.000000"
 preserveAspectRatio="xMidYMid meet">
<metadata>
Created by potrace 1.14, written by Peter Selinger 2001-2017
</metadata>
<g transform="translate(0.000000,512.000000) scale(0.100000,-0.100000)"
fill="#000000" stroke="none">
<path d="M2155 5109 c-22 -4 -56 -10 -75 -14 -404 -66 -867 -292 -1208 -591
-127 -110 -382 -396 -401 -448 -2 -6 -7 -13 -11 -16 -6 -4 -40 -55 -75 -112
-24 -39 -120 -214 -126 -228 -3 -8 -16 -37 -28 -65 -47 -101 -60 -132 -96
-240 -20 -60 -38 -117 -40 -125 -2 -8 -15 -62 -28 -120 -14 -58 -28 -127 -32
-155 -4 -27 -9 -61 -11 -75 -25 -144 -24 -646 1 -713 3 -7 7 -31 9 -53 7 -70
64 -316 86 -369 5 -11 19 -49 31 -85 12 -35 28 -79 36 -97 7 -18 13 -35 13
-38 1 -13 146 -294 167 -321 12 -17 23 -34 23 -37 0 -12 123 -187 131 -187 5
0 9 -6 9 -12 0 -7 17 -32 38 -55 20 -23 47 -55 59 -70 52 -68 251 -259 329
-317 21 -16 46 -37 55 -45 9 -9 26 -23 39 -31 12 -8 40 -27 61 -42 21 -16 43
-28 48 -28 5 0 11 -4 13 -8 10 -24 386 -222 421 -222 7 0 17 -4 23 -9 25 -24
363 -123 461 -135 18 -3 41 -7 52 -11 11 -3 37 -8 58 -10 21 -1 70 -7 108 -11
109 -13 570 -8 570 6 0 1 18 3 40 6 142 16 433 91 560 144 17 7 35 14 42 16
49 10 413 205 421 226 2 4 8 8 13 8 25 0 275 199 379 302 87 85 183 193 237
264 20 27 42 52 47 56 7 5 7 8 1 8 -5 0 -5 4 2 8 12 8 83 108 83 117 0 3 9 15
20 27 10 12 17 25 14 30 -3 4 -1 8 5 8 9 0 179 331 173 337 -1 2 4 16 12 31
20 40 86 238 101 307 2 6 8 30 15 55 7 25 13 54 15 65 2 11 10 61 19 110 25
136 31 221 31 430 -1 165 -10 338 -20 355 -1 3 -6 28 -9 55 -8 59 -10 68 -31
160 -30 130 -73 270 -121 391 -38 95 -174 364 -194 384 -3 3 -11 17 -19 33 -8
15 -18 27 -23 27 -4 0 -8 5 -8 12 0 6 -17 34 -38 62 -21 28 -51 69 -67 91 -16
22 -31 42 -34 45 -4 3 -35 39 -71 80 -62 71 -154 165 -216 220 -80 71 -220
180 -230 180 -7 0 -14 4 -16 8 -4 11 -138 104 -138 96 0 -3 -12 4 -26 15 -15
12 -32 21 -40 21 -7 0 -14 4 -16 8 -3 8 -159 86 -258 130 -69 30 -252 90 -343
113 -209 52 -271 58 -637 57 -190 0 -363 -4 -385 -9z"/>
</g>
</svg>
